# xmcd
#
# Track frame offsets: 
#        150
#        23184
#        39402
#        49462
#        70385
#        85220
#        94779
#        123383
#        139732
#        159508
#        176679
#        199239
#
# Disc length: 2875 seconds
#
# Revision: 1
# Processed by: cddbd v1.5.2PL0 Copyright (c) Steve Scherf et al.
# Submitted via: ExactAudioCopy v0.95b4
#
DISCID=a80b390c
DTITLE=Höyem, Sivert  - Ladies And Gentlemen Of The Opposition
DYEAR=2004
DGENRE=Rock
TTITLE0=Northwind
TTITLE1=Be For Real
TTITLE2=Smalltown Supersound
TTITLE3=Far From Here
TTITLE4=Song For Cornelis
TTITLE5=Black Box
TTITLE6=Ladyfriend
TTITLE7=What's Wrong With You?
TTITLE8=First Day Of Somersaults
TTITLE9=Woman
TTITLE10=Slow Blues - Let It All Hang Out Now
TTITLE11=Theme From Bambi
EXTD=
EXTT0=
EXTT1=
EXTT2=
EXTT3=
EXTT4=
EXTT5=
EXTT6=
EXTT7=
EXTT8=
EXTT9=
EXTT10=
EXTT11=
PLAYORDER=
